<?xml version="1.0" encoding="utf-8"?>
<!-- Generator: Adobe Illustrator 18.0.0, SVG Export Plug-In . SVG Version: 6.00 Build 0)  -->
<!DOCTYPE svg PUBLIC "-//W3C//DTD SVG 1.1//EN" "http://www.w3.org/Graphics/SVG/1.1/DTD/svg11.dtd">
<svg version="1.1" id="Layer_1" xmlns="http://www.w3.org/2000/svg" xmlns:xlink="http://www.w3.org/1999/xlink" x="0px" y="0px"
	 viewBox="0 0 276.5 237.7" enable-background="new 0 0 276.5 237.7" xml:space="preserve">
<text transform="matrix(1 0 0 1 40.5567 31.1064)" display="none" fill="#767676" enable-background="new    " font-family="'GuardianTitlepiece'" font-size="12">Europe</text>
<text transform="matrix(1 0 0 1 23.8848 44.7064)" display="none" fill="#767676" enable-background="new    " font-family="'Georgia-Bold'" font-size="18">11,850</text>
<text transform="matrix(1 0 0 1 57.7882 103.799)" display="none" fill="#767676" enable-background="new    " font-family="'GuardianTitlepiece'" font-size="12">Asia</text>
<text transform="matrix(1 0 0 1 29.3604 117.3989)" display="none" fill="#767676" enable-background="new    " font-family="'Georgia-Bold'" font-size="18">2,860</text>
<text transform="matrix(1 0 0 1 47.9126 154.4555)" display="none" fill="#767676" enable-background="new    " font-family="'GuardianTitlepiece'" font-size="12">Africa</text>
<text transform="matrix(1 0 0 1 48.8018 168.0555)" display="none" fill="#767676" enable-background="new    " font-family="'Georgia-Bold'" font-size="18">835</text>
<text transform="matrix(1 0 0 1 25.1368 200.0707)" display="none" fill="#767676" enable-background="new    " font-family="'GuardianTitlepiece'" font-size="12">Unknown</text>
<text transform="matrix(1 0 0 1 47.4482 213.6707)" display="none" fill="#767676" enable-background="new    " font-family="'Georgia-Bold'" font-size="18">340</text>
<text transform="matrix(1 0 0 1 31.2568 244.0754)" display="none" fill="#767676" enable-background="new    " font-family="'GuardianTitlepiece'" font-size="12">Stateless</text>
<text transform="matrix(1 0 0 1 59.1377 257.6754)" display="none" fill="#767676" enable-background="new    " font-family="'Georgia-Bold'" font-size="18">30</text>
<g>
	<path fill="none" stroke="#EEEEEE" stroke-width="2" stroke-opacity="0.9" d="M17,236.7c121.2,0,121.2-64.9,242.5-64.9"/>
	<path fill="none" stroke="#EEEEEE" stroke-width="3" stroke-opacity="0.9" d="M17,192.7c121.2,0,121.2-21.6,242.5-21.6"/>
	<path fill="none" stroke="#EEEEEE" stroke-width="5" stroke-opacity="0.9" d="M17,147.1c121.2,0,121.2,21.6,242.5,21.6"/>
	<path fill="none" stroke="#EEEEEE" stroke-width="11.4431" stroke-opacity="0.9" d="M17,96.4c121.2,0,121.2,64.9,242.5,64.9"/>
	<path fill="none" stroke="#EEEEEE" stroke-width="47.4128" stroke-opacity="0.9" d="M17,23.7c121.2,0,121.2,108.2,242.5,108.2"/>
	<rect y="0" fill="#ECECEC" width="15" height="47.4"/>
	<rect y="90.7" fill="#ECECEC" width="15" height="11.4"/>
	<rect y="144.6" fill="#ECECEC" width="15" height="5"/>
	<rect y="191.2" fill="#ECECEC" width="15" height="3"/>
	<rect y="235.7" fill="#ECECEC" width="15" height="2"/>
	<rect x="261.5" y="108.2" fill="#ECECEC" width="15" height="64.6"/>
</g>
</svg>
